<?xml version="1.0" encoding="utf-8"?>
<svg xmlns="http://www.w3.org/2000/svg" width="195" height="195" class="segno"><g transform="scale(3)"><path fill="#dddbd7" d="M0 0h65v65h-65z"/><path class="qrline" stroke="#222" d="M4 4.5h7m2 0h4m1 0h1m6 0h5m2 0h4m4 0h2m1 0h4m1 0h4m2 0h7m-57 1h1m5 0h1m1 0h1m3 0h8m1 0h1m2 0h1m1 0h1m1 0h1m2 0h1m1 0h3m2 0h1m8 0h1m2 0h1m5 0h1m-57 1h1m1 0h3m1 0h1m3 0h1m2 0h1m2 0h2m4 0h6m2 0h3m2 0h1m1 0h3m1 0h2m2 0h3m2 0h1m1 0h3m1 0h1m-57 1h1m1 0h3m1 0h1m1 0h2m1 0h1m6 0h1m2 0h1m2 0h1m1 0h2m1 0h1m1 0h1m1 0h1m1 0h2m2 0h1m3 0h1m3 0h1m2 0h1m1 0h3m1 0h1m-57 1h1m1 0h3m1 0h1m3 0h1m1 0h1m2 0h1m1 0h1m1 0h2m1 0h3m1 0h6m4 0h2m3 0h3m3 0h1m2 0h1m1 0h3m1 0h1m-57 1h1m5 0h1m1 0h6m3 0h2m1 0h2m3 0h2m3 0h1m2 0h1m1 0h2m1 0h1m1 0h1m3 0h1m1 0h1m3 0h1m5 0h1m-57 1h7m1 0h1m1 0h1m1 0h1m1 0h1m1 0h1m1 0h1m1 0h1m1 0h1m1 0h1m1 0h1m1 0h1m1 0h1m1 0h1m1 0h1m1 0h1m1 0h1m1 0h1m1 0h1m1 0h1m1 0h1m1 0h1m1 0h7m-42 1h1m1 0h4m1 0h1m1 0h1m1 0h1m3 0h1m1 0h1m2 0h1m1 0h5m1 0h1m1 0h1m2 0h1m-49 1h5m1 0h3m2 0h1m1 0h1m1 0h1m1 0h2m1 0h1m5 0h6m2 0h1m1 0h2m4 0h2m4 0h2m1 0h1m1 0h1m1 0h1m-56 1h2m1 0h1m3 0h1m3 0h1m1 0h1m3 0h1m1 0h1m1 0h4m4 0h2m2 0h1m1 0h3m2 0h1m1 0h2m3 0h3m1 0h1m2 0h3m-55 1h2m2 0h4m2 0h3m3 0h1m4 0h3m2 0h1m2 0h2m1 0h1m1 0h1m1 0h1m1 0h1m3 0h5m1 0h1m1 0h1m2 0h1m-56 1h1m4 0h1m1 0h2m1 0h1m1 0h1m1 0h2m1 0h2m2 0h1m5 0h2m2 0h3m1 0h2m1 0h4m1 0h2m1 0h3m4 0h4m-57 1h9m1 0h2m1 0h3m2 0h4m1 0h1m5 0h3m1 0h4m1 0h1m2 0h1m1 0h1m4 0h1m5 0h1m1 0h1m-56 1h1m5 0h2m1 0h1m4 0h1m1 0h2m2 0h1m2 0h1m1 0h5m6 0h1m1 0h1m1 0h3m1 0h1m2 0h2m1 0h4m-55 1h2m1 0h2m1 0h1m11 0h1m3 0h2m2 0h1m1 0h1m4 0h2m5 0h1m1 0h1m2 0h1m2 0h8m-54 1h1m1 0h2m1 0h1m6 0h2m2 0h1m3 0h1m2 0h1m1 0h1m2 0h1m1 0h3m2 0h1m2 0h1m2 0h2m1 0h4m1 0h4m1 0h1m-56 1h4m1 0h1m4 0h1m3 0h4m1 0h1m3 0h2m5 0h1m3 0h3m3 0h3m4 0h2m-48 1h3m2 0h8m3 0h2m2 0h4m3 0h2m5 0h2m1 0h5m3 0h3m1 0h1m1 0h1m2 0h1m-57 1h2m4 0h1m2 0h1m1 0h2m2 0h8m2 0h2m6 0h1m1 0h1m2 0h1m1 0h1m4 0h1m2 0h1m1 0h1m3 0h2m-56 1h1m4 0h1m1 0h2m3 0h2m2 0h2m7 0h1m1 0h2m1 0h1m2 0h3m2 0h2m1 0h2m2 0h1m2 0h2m2 0h1m1 0h1m1 0h1m-56 1h1m1 0h2m1 0h1m1 0h2m5 0h1m2 0h2m1 0h1m1 0h2m1 0h1m2 0h1m1 0h1m3 0h3m1 0h1m1 0h3m1 0h2m3 0h1m2 0h1m1 0h1m-54 1h4m1 0h2m1 0h4m2 0h2m3 0h5m1 0h1m2 0h3m6 0h1m1 0h4m2 0h3m1 0h1m1 0h2m-54 1h2m2 0h3m5 0h7m2 0h3m3 0h1m3 0h1m2 0h1m2 0h2m5 0h3m7 0h1m-56 1h1m3 0h2m1 0h1m1 0h2m1 0h1m3 0h3m3 0h1m1 0h1m2 0h1m4 0h2m1 0h1m3 0h3m2 0h1m1 0h2m1 0h6m1 0h1m-57 1h7m3 0h3m1 0h2m1 0h4m4 0h3m1 0h3m1 0h2m1 0h2m4 0h2m1 0h2m1 0h1m-49 1h1m1 0h1m1 0h2m1 0h1m2 0h3m1 0h1m2 0h1m1 0h1m2 0h6m1 0h3m1 0h1m2 0h1m2 0h2m1 0h1m1 0h1m2 0h3m3 0h4m-57 1h1m3 0h5m1 0h4m1 0h3m1 0h1m2 0h2m2 0h5m3 0h1m1 0h4m3 0h4m1 0h7m-54 1h1m1 0h2m3 0h3m4 0h2m7 0h3m3 0h2m4 0h6m2 0h5m3 0h5m-55 1h3m1 0h1m1 0h1m1 0h1m1 0h1m1 0h1m1 0h2m2 0h2m4 0h1m1 0h1m1 0h2m4 0h1m1 0h1m4 0h1m1 0h2m1 0h1m1 0h1m1 0h1m1 0h1m1 0h1m-53 1h1m3 0h6m1 0h1m2 0h1m2 0h1m2 0h1m1 0h1m3 0h1m1 0h1m2 0h2m5 0h1m1 0h1m2 0h2m3 0h2m1 0h1m-56 1h1m1 0h9m4 0h1m2 0h3m5 0h5m1 0h4m1 0h2m2 0h1m1 0h2m3 0h5m2 0h1m-56 1h2m2 0h1m2 0h4m3 0h5m2 0h1m9 0h3m3 0h4m1 0h1m1 0h2m4 0h1m2 0h3m-55 1h1m2 0h1m1 0h1m3 0h4m1 0h6m2 0h1m2 0h3m1 0h2m1 0h1m1 0h2m1 0h2m1 0h3m4 0h1m3 0h2m1 0h1m-55 1h2m1 0h1m5 0h2m1 0h2m2 0h1m1 0h1m2 0h1m1 0h1m4 0h3m3 0h3m3 0h2m1 0h1m2 0h5m3 0h1m-55 1h1m3 0h3m2 0h3m1 0h1m4 0h3m4 0h3m1 0h1m1 0h1m1 0h6m4 0h2m2 0h1m2 0h2m2 0h1m-54 1h2m4 0h1m1 0h1m2 0h3m2 0h1m2 0h1m1 0h1m4 0h1m1 0h3m4 0h2m1 0h2m1 0h1m1 0h6m1 0h3m-55 1h1m3 0h4m2 0h5m3 0h1m2 0h1m2 0h1m2 0h1m5 0h1m1 0h2m1 0h2m3 0h1m5 0h1m1 0h2m-49 1h2m2 0h1m1 0h6m1 0h1m1 0h2m1 0h3m1 0h1m2 0h3m3 0h3m1 0h4m1 0h1m3 0h3m-48 1h1m2 0h4m1 0h1m5 0h2m1 0h1m2 0h1m1 0h1m1 0h4m1 0h2m1 0h2m1 0h1m1 0h2m3 0h5m1 0h1m1 0h2m-55 1h1m3 0h1m2 0h2m1 0h1m2 0h1m1 0h1m2 0h4m2 0h2m1 0h2m3 0h4m2 0h1m3 0h1m1 0h1m2 0h2m1 0h2m1 0h3m-53 1h5m1 0h2m1 0h2m1 0h1m1 0h2m1 0h1m2 0h1m1 0h1m1 0h3m1 0h1m2 0h1m1 0h3m3 0h2m8 0h1m-53 1h1m1 0h1m1 0h2m1 0h2m1 0h1m1 0h1m2 0h1m3 0h1m1 0h4m11 0h1m3 0h1m1 0h3m2 0h1m1 0h2m2 0h4m-57 1h1m3 0h1m1 0h2m2 0h1m2 0h2m3 0h1m1 0h3m1 0h1m1 0h1m1 0h4m1 0h1m2 0h6m1 0h7m1 0h1m1 0h1m-53 1h1m5 0h1m1 0h1m4 0h1m1 0h3m2 0h2m1 0h3m1 0h1m2 0h2m1 0h1m1 0h1m1 0h3m3 0h1m3 0h1m4 0h2m1 0h1m-53 1h5m2 0h4m1 0h1m1 0h4m1 0h1m1 0h1m2 0h1m1 0h1m2 0h1m2 0h1m1 0h1m4 0h1m1 0h2m3 0h3m1 0h1m1 0h1m-55 1h1m1 0h1m7 0h2m1 0h1m1 0h2m2 0h1m2 0h1m4 0h1m1 0h1m4 0h2m1 0h2m1 0h1m1 0h1m4 0h1m3 0h3m-56 1h1m1 0h1m2 0h4m1 0h1m1 0h1m1 0h3m1 0h3m3 0h1m1 0h1m2 0h3m1 0h5m1 0h1m1 0h1m1 0h3m1 0h1m3 0h2m1 0h2m-56 1h5m5 0h1m2 0h1m7 0h1m1 0h1m3 0h2m2 0h3m3 0h1m1 0h3m1 0h4m4 0h1m1 0h2m1 0h1m-51 1h1m1 0h4m1 0h1m1 0h7m2 0h8m1 0h1m1 0h2m11 0h6m2 0h1m-49 1h1m4 0h1m5 0h1m1 0h4m1 0h1m3 0h3m4 0h1m1 0h4m4 0h2m3 0h1m3 0h1m-57 1h7m1 0h5m7 0h2m3 0h2m1 0h1m1 0h1m3 0h1m1 0h3m1 0h1m2 0h3m2 0h1m1 0h1m1 0h1m1 0h1m-55 1h1m5 0h1m2 0h8m1 0h3m1 0h3m1 0h1m3 0h1m1 0h1m1 0h1m3 0h6m1 0h1m2 0h1m3 0h4m-56 1h1m1 0h3m1 0h1m1 0h1m3 0h1m2 0h1m2 0h1m2 0h1m2 0h8m1 0h1m1 0h3m1 0h1m2 0h2m4 0h6m-54 1h1m1 0h3m1 0h1m1 0h4m1 0h2m1 0h2m4 0h3m2 0h3m7 0h1m2 0h4m6 0h2m2 0h1m-55 1h1m1 0h3m1 0h1m1 0h1m2 0h2m2 0h2m1 0h1m10 0h5m1 0h5m1 0h1m1 0h1m1 0h4m1 0h1m2 0h2m-55 1h1m5 0h1m1 0h1m3 0h2m2 0h3m4 0h2m5 0h6m2 0h1m1 0h1m3 0h1m1 0h1m1 0h1m5 0h1m-55 1h7m1 0h2m4 0h2m2 0h3m2 0h3m1 0h1m2 0h2m4 0h4m2 0h2m3 0h1m2 0h3m2 0h1"/></g></svg>
