<?xml version="1.0" encoding="iso-8859-1"?>
<!-- Generator: Adobe Illustrator 21.1.0, SVG Export Plug-In . SVG Version: 6.00 Build 0)  -->
<svg version="1.1" id="Layer_1" xmlns="http://www.w3.org/2000/svg" xmlns:xlink="http://www.w3.org/1999/xlink" x="0px" y="0px"
	 viewBox="0 0 100.353 100.353" style="enable-background:new 0 0 100.353 100.353;" xml:space="preserve">
<g>
	<path d="M69.138,19.833c-6.545-1.428-13.449,4.608-15.386,13.458c-0.178,0.81,0.335,1.609,1.145,1.786
		c0.107,0.023,0.216,0.035,0.321,0.035c0.69,0,1.311-0.479,1.464-1.18c1.584-7.234,6.883-12.243,11.817-11.168
		c0.812,0.184,1.608-0.336,1.785-1.146C70.461,20.809,69.947,20.01,69.138,19.833z"/>
	<path d="M77.745,12.101c-8.251-3.826-18.411-0.422-25.573,7.663C48.345,8.946,39.498,1.892,30.277,2.701
		C18.521,3.738,10.04,16.926,11.371,32.099c1.085,12.3,8.094,22.495,17.213,25.255l0.78,8.872c0.068,0.78,0.723,1.368,1.492,1.368
		c0.044,0,0.089-0.002,0.133-0.006l3.13-0.275c-0.798,2.711-1.84,8.071,0.684,12.355c2.391,4.072,0.707,9.235,0.073,11.18
		c-0.108,0.332-0.19,0.59-0.234,0.76c-0.204,0.803,0.282,1.619,1.085,1.823c0.124,0.031,0.248,0.046,0.37,0.046
		c0.67,0,1.281-0.452,1.453-1.131c0.032-0.128,0.097-0.32,0.178-0.568c0.749-2.295,2.736-8.392-0.339-13.631
		c-2.369-4.022-0.512-9.768-0.02-11.119l3.54-0.311c0.825-0.072,1.436-0.8,1.363-1.625l-0.78-8.874
		c1.449-0.738,2.809-1.695,4.073-2.844c0.892,1.961,2.038,3.745,3.464,5.261l-3.744,8.079c-0.349,0.752-0.021,1.644,0.73,1.992
		l2.803,1.299c-0.688,1.91-2.686,8.484,0.297,13.552c2.39,4.071,0.707,9.232,0.073,11.176c-0.108,0.331-0.19,0.589-0.233,0.759
		c-0.204,0.803,0.281,1.619,1.084,1.823c0.124,0.031,0.248,0.046,0.37,0.046c0.67,0,1.28-0.452,1.453-1.131
		c0.032-0.127,0.097-0.319,0.178-0.567c0.748-2.294,2.736-8.388-0.339-13.626c-2.198-3.734-0.759-8.948-0.146-10.763l3.487,1.616
		c0.204,0.094,0.419,0.139,0.63,0.139c0.565,0,1.107-0.321,1.361-0.868l3.752-8.078c9.501,0.522,19.574-6.722,24.766-17.914
		C91.953,32.348,88.452,17.065,77.745,12.101z M39.311,53.93c-0.593,0.257-0.956,0.864-0.899,1.508l0.74,8.422l-6.931,0.609
		l-0.741-8.422c-0.057-0.645-0.521-1.18-1.15-1.328c-8.255-1.942-14.972-11.566-15.971-22.883
		C13.172,18.311,20.432,6.581,30.541,5.69c8.329-0.732,16.387,6.348,19.385,16.908c-1.209,1.705-2.298,3.561-3.225,5.56
		c-3.493,7.528-4.178,15.56-2.277,22.129C42.887,51.889,41.175,53.125,39.311,53.93z M82.829,44.908
		c-4.777,10.298-14.375,17.075-22.793,16.105c-0.646-0.075-1.259,0.272-1.531,0.858l-3.562,7.667l-6.306-2.924l3.555-7.669
		c0.271-0.588,0.137-1.283-0.336-1.726c-6.193-5.8-7.217-17.491-2.435-27.799c0.924-1.993,2.019-3.833,3.24-5.502
		c0.083-0.087,0.156-0.182,0.215-0.286c6.332-8.451,15.975-12.348,23.607-8.81C85.689,19.091,88.536,32.588,82.829,44.908z"/>
</g>
</svg>
