<?xml version="1.0" encoding="utf-8"?>
<!-- Svg Vector Icons : http://www.onlinewebfonts.com/icon -->
<!DOCTYPE svg PUBLIC "-//W3C//DTD SVG 1.1//EN" "http://www.w3.org/Graphics/SVG/1.1/DTD/svg11.dtd">
<svg version="1.1" xmlns="http://www.w3.org/2000/svg" xmlns:xlink="http://www.w3.org/1999/xlink" x="0px" y="0px" viewBox="0 0 1000 1000" enable-background="new 0 0 1000 1000" xml:space="preserve">
<metadata> Svg Vector Icons : http://www.onlinewebfonts.com/icon </metadata>
<g><g transform="translate(0.000000,435.000000) scale(0.100000,-0.100000)"><path d="M3431.2,3465.1c-65.2-53.7-88.2-128.4-61.3-207c28.8-92,88.2-122.7,291.3-151.4c417.9-61.3,743.7-346.9,983.3-862.5c47.9-101.6,84.3-185.9,80.5-187.8c-3.8-3.8-99.7-15.3-216.6-28.8C3038.3,1864.6,1790.5,902.4,1366.9-393.3c-76.7-231.9-145.7-567.3-145.7-705.3v-92l-95.8-32.6C975.9-1273,860.9-1343.9,749.8-1457c-174.4-172.5-256.8-379.5-256.8-638.3c0-423.6,262.6-764.8,676.6-879.8c111.2-30.7,124.6-42.2,201.3-151.4c193.6-276,525.2-603.8,847.2-837.6c559.7-408.3,1272.7-686.2,2037.5-795.4c377.6-55.6,1105.9-55.6,1483.5,0c764.7,109.3,1477.8,387.2,2037.5,795.4c322,233.8,653.6,561.6,847.2,837.6c76.7,109.2,90.1,120.8,201.3,151.4c586.5,164.8,847.2,780.1,563.5,1335.9c-86.3,168.7-304.7,345-519.4,415.9l-95.8,32.6v92c0,138-69,473.4-145.7,705.3C8201.9,904.4,6954.1,1864.6,5482.1,2029.5c-136.1,13.4-216.6,30.7-216.6,46c0,32.6,109.3,176.3,207,270.3c122.7,120.8,285.6,228.1,530.9,350.8c230,115,291.3,180.2,268.3,281.8c-21.1,95.8-72.8,143.8-166.7,153.3c-78.6,9.6-111.2-1.9-300.9-95.8c-116.9-57.5-276-149.5-354.6-205.1c-139.9-95.8-352.7-293.3-410.2-379.5c-28.8-44.1-28.8-42.2-103.5,95.8c-216.6,398.7-517.5,703.4-837.6,845.3C3858.7,3497.7,3515.6,3536,3431.2,3465.1z M5499.4,1630.8C6858.3,1441,7941.2,568.9,8284.3-609.8c61.3-208.9,105.4-471.5,105.4-628.7c0-226.2,57.5-306.7,239.6-337.4c63.3-9.6,136.1-26.8,162.9-36.4c97.7-38.3,203.2-134.2,256.8-231.9c145.7-270.2,36.4-592.2-245.4-722.6c-53.7-24.9-124.6-46-157.2-46c-124.6,0-164.8-32.6-314.3-245.3c-78.6-111.2-233.8-295.2-345-406.3c-609.5-613.3-1385.8-979.4-2357.5-1113.6c-239.6-34.5-1025.4-34.5-1265,0c-971.8,134.2-1748,500.3-2357.6,1113.6c-111.2,111.2-258.8,285.6-329.7,385.3c-70.9,101.6-145.7,197.4-166.7,216.6c-19.2,17.3-88.2,40.3-149.5,49.9c-391,53.7-596.1,435.1-415.9,768.6c88.2,159.1,218.5,237.7,454.3,276c40.3,5.8,99.7,34.5,132.3,65.2c57.5,49.8,59.4,57.5,74.7,281.8c28.8,442.8,118.8,764.8,322,1148.1c414,787.8,1236.3,1406.9,2165.9,1631.1C4514.2,1659.5,5083.4,1690.2,5499.4,1630.8z"/><path d="M4113.6,269.9c-408.3-80.5-889.4-283.7-1031.2-437c-70.9-74.8-63.3-193.6,15.3-264.5c86.3-76.7,170.6-72.8,327.8,21.1c176.3,105.4,419.8,201.3,632.5,251.1c99.7,23,214.7,51.8,256.8,61.3c191.7,47.9,233.8,285.6,63.3,368C4301.4,304.4,4286.1,304.4,4113.6,269.9z"/><path d="M5622,271.8c-80.5-42.2-105.4-84.3-107.3-174.4c0-97.8,61.3-170.6,164.8-195.5c42.2-9.6,157.2-38.3,256.9-61.3c212.7-49.8,456.2-145.7,632.5-251.1c164.8-97.8,260.7-101.6,333.5-15.3c26.8,32.6,49.8,72.8,51.7,90.1c9.6,132.3-26.8,182.1-212.7,293.3c-230,136.1-557.8,253-875.9,314.3C5683.4,306.3,5691,306.3,5622,271.8z"/><path d="M4771-504.4c-868.3-88.2-1636.9-730.3-1983.8-1658c-164.8-440.8-187.8-870.2-55.6-1082.9c82.4-132.3,187.8-182.1,377.6-180.2c90.1,1.9,212.8,19.2,297.1,42.2c78.6,23,268.3,76.7,421.7,118.8c895.1,251.1,1443.3,251.1,2338.4,0c153.3-42.2,343.1-95.8,421.7-118.8c84.3-23,207-40.2,297.1-42.2c189.8-1.9,295.2,47.9,377.6,180.2c212.8,343.1,17.2,1159.6-421.7,1769.1c-124.6,174.4-444.7,488.8-601.9,592.3C5785-581.1,5286.6-452.7,4771-504.4z M5447.6-943.4c494.5-132.2,944.9-500.3,1232.4-1013.9c178.3-316.3,277.9-661.3,268.3-923.9l-5.7-143.8l-63.3-5.7c-34.5-3.8-260.7,47.9-517.5,118.8c-690,191.7-824.2,210.8-1364.7,210.8c-540.5,0-674.7-19.2-1364.7-210.8c-256.8-70.9-483-122.7-517.5-118.8l-63.2,5.7l-5.7,143.8c-19.2,456.2,266.4,1061.8,690,1468.2c287.5,276,557.8,419.8,927.7,496.4C4853.4-876.3,5248.3-891.6,5447.6-943.4z"/><path d="M8899.6,3003.2c-145.7-46-306.7-157.2-377.6-262.6c-118.8-170.6-235.8-517.5-331.6-979.4c-59.4-276-59.4-316.3-17.2-389.1c69-115,128.4-115,601.8-7.7c644,147.6,900.8,283.7,1040.8,555.8C10122.5,2518.2,9539.8,3208.2,8899.6,3003.2z M9332.8,2583.4c197.4-126.5,230-423.6,61.3-580.8c-90.1-80.5-404.4-195.5-720.7-260.7l-92-19.2l11.5,51.7c72.9,316.3,153.3,569.3,224.3,697.7C8911.1,2640.9,9156.5,2694.6,9332.8,2583.4z"/><path d="M636.7,2625.6c-226.2-80.5-391-226.2-486.8-427.4c-44.1-93.9-49.8-128.4-49.8-316.3c0-197.4,3.8-218.5,61.3-339.3c139.9-295.2,394.8-435.1,1088.7-592.3c362.3-82.4,452.3-90.1,523.3-40.3c105.4,76.7,113.1,126.5,51.8,421.7c-122.7,599.9-260.7,966-421.7,1113.6c-49.8,46-145.7,109.3-216.6,141.8C1023.9,2663.9,790,2679.2,636.7,2625.6z M1020,2205.8c34.5-15.3,80.5-49.8,103.5-72.8c72.8-76.7,185.9-394.8,260.7-726.4l11.5-55.6l-82.4,13.4c-130.3,23-450.4,120.8-580.8,180.2c-184,84.3-268.3,245.3-220.4,423.6c24.9,92,120.7,207,201.3,241.5C791.9,2244.1,943.4,2242.2,1020,2205.8z"/></g></g>
</svg>