<?xml version="1.0" encoding="iso-8859-1"?>
<!-- Generator: Adobe Illustrator 21.1.0, SVG Export Plug-In . SVG Version: 6.00 Build 0)  -->
<svg version="1.1" id="Layer_1" xmlns="http://www.w3.org/2000/svg" xmlns:xlink="http://www.w3.org/1999/xlink" x="0px" y="0px"
	 viewBox="0 0 100.75 100.75" style="enable-background:new 0 0 100.75 100.75;" xml:space="preserve">
<g>
	<path d="M31.068,38.79c7.18,0,13.021-5.841,13.021-13.021c0-7.178-5.842-13.019-13.021-13.019c-7.177,0-13.016,5.84-13.016,13.019
		C18.052,32.949,23.891,38.79,31.068,38.79z M31.068,15.75c5.525,0,10.021,4.494,10.021,10.019c0,5.526-4.496,10.021-10.021,10.021
		c-5.522,0-10.016-4.496-10.016-10.021S25.545,15.75,31.068,15.75z"/>
	<path d="M63.772,50.934c-0.789,0.254-1.223,1.099-0.969,1.887c0.253,0.788,1.098,1.225,1.887,0.969
		c1.708-0.549,3.492-0.828,5.304-0.828c9.54,0,17.302,7.762,17.302,17.304c0,0.829,0.672,1.5,1.5,1.5s1.5-0.671,1.5-1.5
		c0-11.195-9.107-20.304-20.302-20.304C67.87,49.963,65.777,50.289,63.772,50.934z"/>
	<path d="M70.574,46.589c6.603,0,11.975-5.372,11.975-11.975c0-6.602-5.372-11.972-11.975-11.972c-6.6,0-11.969,5.371-11.969,11.972
		C58.605,41.217,63.974,46.589,70.574,46.589z M70.574,25.642c4.948,0,8.975,4.025,8.975,8.972c0,4.949-4.026,8.975-8.975,8.975
		c-4.945,0-8.969-4.026-8.969-8.975C61.605,29.667,65.628,25.642,70.574,25.642z"/>
	<path d="M90.617,86.124c0.026-0.102,0.04-0.206,0.045-0.311c0.001-0.033,0-0.066-0.001-0.099c-0.002-0.088-0.012-0.175-0.03-0.262
		c-0.006-0.031-0.011-0.062-0.019-0.094c-0.031-0.114-0.071-0.226-0.131-0.333l-8.557-15.484c-0.401-0.727-1.314-0.987-2.038-0.587
		c-0.725,0.401-0.988,1.313-0.587,2.039l7.326,13.258H64.793c-0.754-7.407-7.028-13.207-14.631-13.207
		c-7.602,0-13.875,5.8-14.629,13.207H22.355V64.802c0-0.829-0.672-1.5-1.5-1.5s-1.5,0.671-1.5,1.5v19.449h-7.019V45.827h36.165
		v3.466c-4.831,0.682-8.562,4.831-8.562,9.846c0,5.49,4.466,9.956,9.956,9.956c5.491,0,9.958-4.466,9.958-9.956
		c0-4.942-3.624-9.043-8.353-9.814v-4.998c0-0.829-0.672-1.5-1.5-1.5H10.835c-0.828,0-1.5,0.671-1.5,1.5V85.75
		c0,0.829,0.672,1.5,1.5,1.5h78.328c0.001,0,0.002,0,0.004,0c0.127,0,0.254-0.017,0.379-0.05c0.054-0.014,0.102-0.041,0.153-0.061
		c0.064-0.025,0.13-0.042,0.193-0.076c0.004-0.002,0.007-0.005,0.01-0.007c0.016-0.009,0.03-0.022,0.045-0.031
		c0.086-0.053,0.165-0.113,0.237-0.179c0.026-0.024,0.048-0.05,0.072-0.075c0.061-0.065,0.115-0.134,0.163-0.208
		c0.011-0.018,0.028-0.031,0.039-0.049c0.006-0.01,0.008-0.022,0.014-0.033c0.057-0.103,0.105-0.21,0.137-0.322
		C90.614,86.146,90.615,86.135,90.617,86.124z M56.855,59.139c0,3.835-3.121,6.956-6.958,6.956c-3.836,0-6.956-3.12-6.956-6.956
		s3.12-6.956,6.956-6.956C53.734,52.183,56.855,55.303,56.855,59.139z M50.163,74.043c5.946,0,10.86,4.459,11.6,10.207H38.565
		C39.305,78.502,44.218,74.043,50.163,74.043z"/>
</g>
</svg>
