<?xml version="1.0" encoding="iso-8859-1"?>
<!-- Generator: Adobe Illustrator 19.0.0, SVG Export Plug-In . SVG Version: 6.00 Build 0)  -->
<svg version="1.1" id="Capa_1" xmlns="http://www.w3.org/2000/svg" xmlns:xlink="http://www.w3.org/1999/xlink" x="0px" y="0px"
	 viewBox="0 0 512 512" style="enable-background:new 0 0 512 512;" xml:space="preserve">
<g>
	<g>
		<path d="M0,51v340h201v40h-45v30h200v-30h-45v-40h45v20h30v-20h30v20h30v-20h66V51H0z M281,431h-50v-40h50V431z M152.068,361
			c7.301-50.817,51.127-90,103.932-90s96.631,39.183,103.932,90H152.068z M221,206v-30c0-19.299,15.701-35,35-35s35,15.701,35,35v30
			c0,19.299-15.701,35-35,35S221,225.299,221,206z M482,361h-91.838c-5.664-50.997-39.845-93.508-86.194-111.186
			C314.54,238.25,321,222.866,321,206v-30c0-35.841-29.159-65-65-65s-65,29.159-65,65v30c0,16.866,6.46,32.25,17.032,43.814
			c-46.349,17.678-80.53,60.189-86.194,111.186H30V81h452V361z"/>
	</g>
</g>
<g>
</g>
<g>
</g>
<g>
</g>
<g>
</g>
<g>
</g>
<g>
</g>
<g>
</g>
<g>
</g>
<g>
</g>
<g>
</g>
<g>
</g>
<g>
</g>
<g>
</g>
<g>
</g>
<g>
</g>
</svg>
