<?xml version="1.0" encoding="utf-8"?>
<!-- Generator: Adobe Illustrator 23.0.3, SVG Export Plug-In . SVG Version: 6.00 Build 0)  -->
<svg version="1.1" id="Layer_1" xmlns="http://www.w3.org/2000/svg" xmlns:xlink="http://www.w3.org/1999/xlink" x="0px" y="0px"
	 viewBox="0 0 512 512" style="enable-background:new 0 0 512 512;" xml:space="preserve">
<style type="text/css">
	.st0{fill:#040404;}
	.st1{fill:#F66292;}
	.st2{fill:#FFFFFF;}
	.st3{fill:url(#SVGID_1_);}
	.st4{fill:url(#SVGID_2_);}
	.st5{fill:url(#SVGID_3_);}
	.st6{fill:url(#SVGID_4_);}
	.st7{fill:url(#SVGID_5_);}
	.st8{fill:url(#SVGID_6_);}
	.st9{fill:url(#SVGID_7_);}
	.st10{fill:url(#SVGID_8_);}
	.st11{fill:url(#SVGID_9_);}
	.st12{fill:url(#SVGID_10_);}
	.st13{fill:url(#SVGID_11_);}
	.st14{fill:url(#SVGID_12_);}
	.st15{fill:url(#SVGID_13_);}
	.st16{fill:url(#SVGID_14_);}
	.st17{fill:url(#SVGID_15_);}
	.st18{fill:url(#SVGID_16_);}
	.st19{fill:url(#SVGID_17_);}
	.st20{fill:url(#SVGID_18_);}
	.st21{fill:url(#SVGID_19_);}
	.st22{fill:url(#SVGID_20_);}
	.st23{fill:url(#SVGID_21_);}
	.st24{fill:url(#SVGID_22_);}
	.st25{fill:url(#SVGID_23_);}
	.st26{fill:url(#SVGID_24_);}
	.st27{fill:url(#SVGID_25_);}
	.st28{fill:url(#SVGID_26_);}
	.st29{fill:url(#SVGID_27_);}
	.st30{fill:url(#SVGID_28_);}
	.st31{fill:url(#SVGID_29_);}
	.st32{fill:url(#SVGID_30_);}
	.st33{fill:url(#SVGID_31_);}
	.st34{fill:url(#SVGID_32_);}
	.st35{fill:url(#SVGID_33_);}
	.st36{fill:url(#SVGID_34_);}
	.st37{fill:url(#SVGID_35_);}
	.st38{fill:url(#SVGID_36_);}
	.st39{fill:url(#SVGID_37_);}
	.st40{fill:url(#SVGID_38_);}
	.st41{fill:url(#SVGID_39_);}
	.st42{fill:url(#SVGID_40_);}
	.st43{fill:url(#SVGID_41_);}
	.st44{fill:url(#SVGID_42_);}
	.st45{fill:url(#SVGID_43_);}
	.st46{fill:url(#SVGID_44_);}
	.st47{fill:url(#SVGID_45_);}
	.st48{fill:url(#SVGID_46_);}
	.st49{fill:url(#SVGID_47_);}
	.st50{fill:url(#SVGID_48_);}
	.st51{fill:url(#SVGID_49_);}
	.st52{fill:url(#SVGID_50_);}
	.st53{fill:url(#SVGID_51_);}
	.st54{fill:url(#SVGID_52_);}
	.st55{fill:url(#SVGID_53_);}
	.st56{fill:url(#SVGID_54_);}
	.st57{fill:url(#SVGID_55_);}
	.st58{fill:#0B8DFF;}
	.st59{fill:#FF7E2A;}
	.st60{fill:#F18585;}
	.st61{fill:#44BFC7;}
	.st62{fill:#669ACC;}
	.st63{fill:#D696BB;}
	.st64{fill:#7545FD;}
	.st65{fill:#FFC301;}
	.st66{fill:#EC3843;}
	.st67{fill:#0B8DA3;}
	.st68{fill:#A895CD;}
	.st69{fill:#12D316;}
	.st70{fill:#61BA5E;}
	.st71{fill:#20CDF7;}
	.st72{fill:#F33A64;}
	.st73{fill:#7BC7A3;}
	.st74{fill:#020202;}
	.st75{fill:#030303;}
	.st76{fill:#0D0D0D;}
	.st77{fill:#0A0A0A;}
	.st78{fill:#050505;}
	.st79{fill:#080808;}
	.st80{fill:#060606;}
	.st81{fill:#F9CDBD;}
	.st82{fill:#1C0000;}
	.st83{fill:#FD598B;}
	.st84{fill:#F9F9F9;}
	.st85{fill:#F7F7F7;}
	.st86{fill:#250103;}
	.st87{fill:#F0658F;}
</style>
<g>
	<path class="st78" d="M158,417.3c0,5.8-0.1,11.6,0,17.4c0.1,4.8-0.5,9.6-6.4,9.8c-5.9,0.2-6.9-4.5-6.9-9.4c0-10.3,0.1-20.5,0-30.8
		c-0.2-19.6-10.4-29.7-29.7-29.6c-19.2,0-29.3,10.1-29.5,29.9c-0.1,10.3,0,20.5,0,30.8c0,4.8-1,9.4-7,9.1c-5-0.3-6.1-4.3-6.1-8.7
		c0.1-12.9-0.7-25.9,0.3-38.8c1.8-21.9,19.6-35.7,44-35.4c23,0.3,39.8,15.2,41.2,37c0.4,6.2,0.1,12.5,0.1,18.7
		C157.9,417.3,158,417.3,158,417.3z"/>
	<path class="st78" d="M439.9,417.1c0,5.4,0.2,10.7,0,16c-0.2,4.6,1.3,11.2-5.9,11.3c-7.7,0.1-7-6.6-7.1-11.9
		c-0.1-9.4,0.1-18.7-0.1-28.1c-0.4-20-10.2-29.7-29.6-29.7c-19.1,0-29.5,10.2-29.9,29.7c-0.2,10.7-0.1,21.4-0.1,32.1
		c0,4.5-1.4,8.2-6.6,8c-4.2-0.2-6.4-3.4-6.3-7.3c0.3-15.5-2.2-31.3,1.6-46.6c5.2-20.7,24.4-31.8,49.2-28.9c19.4,2.2,33.8,18,34.6,38
		C440,405.5,439.8,411.3,439.9,417.1C439.9,417.1,439.9,417.1,439.9,417.1z"/>
	<path class="st74" d="M430.3,282.6c-11.1-16.7-35.7-22.9-53.4-11.4c-8.9,5.8-13.2,2.8-18.8-3.1c-13.3-14.2-20.4-31.1-23.7-50
		c-3.2-18.2-11.6-25.5-29.9-25.6c-30.8-0.1-61.6-0.1-92.4,0c-19.2,0-26.6,6.7-30.6,26.1c-4.2,21-12.6,39.9-29.6,54
		c-5.1,4.2-8.7,4.6-14.8,0.6c-25.5-16.8-57.4-2.2-61.5,28c-1.8,12.8-1.8,25.8-3.2,38.7c-0.9,9,2.9,11.8,11.5,11.6
		c20.1-0.4,40.2-0.6,60.3,0.1c10.3,0.3,15.4-2.4,13.5-13.6c-0.6-3.8-1.8-8.3,3.2-10.4c14.3-6,25.5-16.6,38.7-27.4
		c0,45.3,0,88.6,0.1,131.8c0,5.1-1.4,12.3,6.4,12.3c8,0,6.3-7.3,6.3-12.3c0.1-49.1,0.1-98.2,0-147.3c0-4.2,1.5-9.6-4.1-11.6
		c-6.2-2.1-8.3,3.4-11.2,7.2c-10.7,14.5-23.2,26.8-40.8,34.3c-1.3-7.8-2-14-3.3-20.1c-0.9-3.9-0.3-6.4,3.3-8.9
		c22.5-15.9,33.5-39,38.1-65.2c2.1-12.1,8.2-15.1,19.2-15c29,0.4,58,0.6,87.1,0c12.9-0.3,19.5,3.6,21.5,17.4
		c2.9,19.7,9.9,38.9,25.1,52.1c10.9,9.5,13.1,18.8,11.4,31.7c-1,7.6-2.4,8.3-8.6,4.5c-14.4-8.8-25.6-20.7-34.7-34.7
		c-2.5-3.9-3.9-10.1-10.4-8.4c-7.3,1.9-5.1,8.5-5.1,13.5c-0.1,50-0.1,100,0,150c0,5.1-1.7,12.3,5.9,12.7c8.8,0.5,7.2-7.3,7.2-12.8
		c0.1-40.6,0-81.3,0.2-121.9c0-3.6-1.9-7.8,2-11.1c11.8,13.4,25.2,24.2,41.6,30.9c4,1.6,6.4,4.4,9,7.5c13.9,16.4,38.8,19.9,55.4,7.8
		C437.8,332.6,442.5,301.1,430.3,282.6z M113.1,338.5c-7.7-1.5-24.4,3.8-25.5-2.5c-2.4-14.1-2.5-30.4,5.1-44.2
		c7.9-14.2,26.9-17,39.3-6.6c5.3,4.5,8.5,10.2,9.6,17.1c0.3,2.2,0.3,4.4,0.5,6.7C144,338.5,144,338.5,113.1,338.5z M396.7,338.5
		c-17.1-0.3-25.3-10.2-25.3-30.4c0.1-19.2,9.5-29.6,26.5-29.3c16.8,0.3,25.5,10.8,25.4,30.5C423.3,328.7,414,338.9,396.7,338.5z"/>
	<path class="st0" d="M310.9,167.9c-1.9-20.4-2.4-41.1-5.8-61.2c-3.9-23.3-27.4-40.3-50.7-39.2c-24.7,1.2-45.6,19.9-48.4,43.9
		c-2.1,18.2-3.1,36.5-4.8,54.7c-0.7,7.9,2,11.6,10.4,11.3c14.7-0.4,29.5-0.1,44.2-0.1c15.2,0,30.4-0.1,45.5,0.1
		C308.1,177.4,311.5,175,310.9,167.9z M290,164.4c-11.1-0.4-22.2-0.1-33.3-0.1c-1.8,0-3.6,0.1-5.3,0c-11.8-0.9-27.7,5.2-34.3-2.7
		c-5.4-6.4-0.5-21.9,0.5-33.3c0.9-10.5,0.9-21.4,7.3-30.7c8.6-12.4,24.2-19.2,38.2-16.3c16.5,3.5,28.2,15.4,30.5,32.8
		c1.9,14.1,2.1,28.3,3.5,42.5C297.6,162.4,296.1,164.6,290,164.4z"/>
</g>
</svg>
