<?xml version="1.0" encoding="utf-8"?>
<!-- Generator: Adobe Illustrator 23.0.3, SVG Export Plug-In . SVG Version: 6.00 Build 0)  -->
<svg version="1.1" id="Icons" xmlns="http://www.w3.org/2000/svg" xmlns:xlink="http://www.w3.org/1999/xlink" x="0px" y="0px"
	 viewBox="0 0 32 32" style="enable-background:new 0 0 32 32;" xml:space="preserve">
<style type="text/css">
	.st0{fill:none;stroke:#000000;stroke-width:1;stroke-linecap:round;stroke-linejoin:round;stroke-miterlimit:10;}
	.st1{fill:none;stroke:#000000;stroke-width:1;stroke-linejoin:round;stroke-miterlimit:10;}
</style>
<ellipse class="st0" cx="16" cy="12" rx="13" ry="5"/>
<path class="st0" d="M3,12v12c0,2.8,5.8,5,13,5s13-2.2,13-5V12"/>
<line class="st0" x1="24" y1="27.9" x2="24" y2="15.9"/>
<line class="st0" x1="8" y1="15.9" x2="8" y2="27.9"/>
<path class="st0" d="M16,19.4L16,19.4c0.5,1.5,1.9,2.5,3.5,2.5h0l0,0c-1.3,0.9-1.8,2.6-1.3,4.1v0l0,0c-1.3-0.9-3-0.9-4.3,0l0,0l0,0
	c0.5-1.5,0-3.2-1.3-4.1l0,0h0C14.1,21.9,15.5,20.9,16,19.4L16,19.4z"/>
<line class="st0" x1="14" y1="11" x2="29" y2="4"/>
<circle class="st0" cx="12" cy="12" r="2"/>
</svg>
